<?xml version="1.0" encoding="UTF-8"?>
<svg viewBox="0 0 256 256" xmlns="http://www.w3.org/2000/svg">
<rect x="36" y="41.975" width="184" height="20" fill="#fff" />
<rect x="98.25" y="15.475" width="59.5" height="21.5" fill="#fff" />
<rect x="61.25" y="57.975" width="133" height="183.5" rx="10" fill="#fff" />
<g fill="none" stroke="#000" stroke-linecap="round" stroke-linejoin="round" stroke-miterlimit="2.6131" stroke-width="10">
    <line x1="53.504" x2="63.04" y1="62.562" y2="230.36"/>
    <path d="m63.04 230.36c0 5.9391 4.2776 10.764 9.5365 10.764"/>
    <line x1="72.577" x2="183.43" y1="241.13" y2="241.13"/>
    <path d="m183.43 241.13c5.2593 0 9.53-4.8254 9.53-10.764"/>
    <polyline points="192.96 230.36 202.51 62.562 53.504 62.562"/>
    <path d="m219.78 52.191c0 5.6896-4.0889 10.303-9.1328 10.303"/>
    <line x1="210.65" x2="45.353" y1="62.494" y2="62.494"/>
    <path d="m45.353 62.494c-5.0304 0-9.1328-4.6133-9.1328-10.303"/>
    <path d="m36.22 52.191c0-5.667 4.1024-10.288 9.1328-10.288"/>
    <line x1="45.353" x2="210.65" y1="41.903" y2="41.903"/>
    <path d="m210.65 41.903c5.0439 0 9.1328 4.6212 9.1328 10.288"/>
    <line x1="156.8" x2="156.8" y1="41.736" y2="25.615"/>
    <path d="m156.8 25.615c0-5.9244-4.2706-10.742-9.5229-10.742"/>
    <line x1="147.28" x2="108.73" y1="14.873" y2="14.873"/>
    <path d="m108.73 14.873c-5.2659 0-9.53 4.818-9.53 10.742"/>
    <polyline points="99.202 25.615 99.202 41.736 156.8 41.736"/>
    <line x1="85.987" x2="85.987" y1="84.038" y2="216.27"/>
    <line x1="113.99" x2="113.99" y1="84.038" y2="216.27"/>
    <line x1="142.02" x2="142.02" y1="84.038" y2="216.27"/>
    <line x1="170.01" x2="170.01" y1="84.038" y2="216.27"/>
</g>
</svg>
